HIERARCHY
ROOT hips
{
	OFFSET -0.003675 0.299928 -0.021708
	CHANNELS 6 Xposition Yposition Zposition Xrotation Yrotation Zrotation
	JOINT LowerBack
	{
		OFFSET 0.000919 0.177588 0.009275
		CHANNELS 3 Xrotation Yrotation Zrotation
		JOINT spine
		{
			OFFSET 0.000919 0.177588 0.009275
			CHANNELS 3 Xrotation Yrotation Zrotation
			JOINT chest
			{
				OFFSET 0.000456 0.100015 0.004638
				CHANNELS 3 Xrotation Yrotation Zrotation
				JOINT neck
				{
					OFFSET 0.000456 0.100015 0.004638
					CHANNELS 3 Xrotation Yrotation Zrotation
					JOINT head
					{
						OFFSET 0.000924 0.155147 0.009274
						CHANNELS 6 Xposition Yposition Zposition Xrotation Yrotation Zrotation
						End Site
						{
							OFFSET 0.000000 0.153400 0.000000
						}
					}
				}
				JOINT shoulder.L
				{
					OFFSET 0.019937 0.078966 0.057518
					CHANNELS 6 Xposition Yposition Zposition Yrotation Xrotation Zrotation
					JOINT upper_arm.L
					{
						OFFSET 0.177024 -0.020465 -0.095062
						CHANNELS 6 Xposition Yposition Zposition Xrotation Yrotation Zrotation
						JOINT forearm.L
						{
							OFFSET 0.247100 -0.135500 -0.061800
							CHANNELS 3 Xrotation Yrotation Zrotation
							JOINT hand.L
							{
								OFFSET 0.217000 -0.143000 0.039300
								CHANNELS 3 Xrotation Yrotation Zrotation
								JOINT palm.01.L
								{
									OFFSET 0.021770 -0.038291 0.012954
									CHANNELS 6 Xposition Yposition Zposition Yrotation Xrotation Zrotation
									JOINT f_index.01.L
									{
										OFFSET 0.053215 -0.044137 0.008236
										CHANNELS 3 Xrotation Yrotation Zrotation
										JOINT f_index.02.L
										{
											OFFSET 0.036108 -0.024723 -0.010656
											CHANNELS 3 Xrotation Yrotation Zrotation
											JOINT f_index.03.L
											{
												OFFSET 0.021342 -0.014948 -0.010846
												CHANNELS 3 Xrotation Yrotation Zrotation
												End Site
												{
													OFFSET 0.015600 -0.009860 -0.013421
												}
											}
										}
									}
									JOINT thumb.01.L
									{
										OFFSET -0.009090 -0.002348 -0.024223
										CHANNELS 6 Xposition Yposition Zposition Xrotation Yrotation Zrotation
										JOINT thumb.02.L
										{
											OFFSET 0.019713 -0.035076 -0.011120
											CHANNELS 3 Xrotation Yrotation Zrotation
											JOINT thumb.03.L
											{
												OFFSET 0.024877 -0.021748 -0.005176
												CHANNELS 3 Xrotation Yrotation Zrotation
												End Site
												{
													OFFSET 0.016125 -0.013029 -0.001569
												}
											}
										}
									}
								}
								JOINT palm.02.L
								{
									OFFSET 0.032823 -0.025104 0.012281
									CHANNELS 6 Xposition Yposition Zposition Yrotation Xrotation Zrotation
									JOINT f_middle.01.L
									{
										OFFSET 0.055723 -0.038469 0.008037
										CHANNELS 3 Xrotation Yrotation Zrotation
										JOINT f_middle.02.L
										{
											OFFSET 0.038167 -0.027473 -0.015582
											CHANNELS 3 Xrotation Yrotation Zrotation
											JOINT f_middle.03.L
											{
												OFFSET 0.021707 -0.016587 -0.017037
												CHANNELS 3 Xrotation Yrotation Zrotation
												End Site
												{
													OFFSET 0.014112 -0.010584 -0.014294
												}
											}
										}
									}
								}
								JOINT palm.03.L
								{
									OFFSET 0.039230 -0.011402 0.008390
									CHANNELS 6 Xposition Yposition Zposition Yrotation Xrotation Zrotation
									JOINT f_ring.01.L
									{
										OFFSET 0.061796 -0.031470 0.007910
										CHANNELS 3 Xrotation Yrotation Zrotation
										JOINT f_ring.02.L
										{
											OFFSET 0.033092 -0.023401 -0.019127
											CHANNELS 3 Xrotation Yrotation Zrotation
											JOINT f_ring.03.L
											{
												OFFSET 0.021392 -0.015362 -0.017824
												CHANNELS 3 Xrotation Yrotation Zrotation
												End Site
												{
													OFFSET 0.008670 -0.007297 -0.014686
												}
											}
										}
									}
								}
								JOINT palm.04.L
								{
									OFFSET 0.043417 0.002450 0.002889
									CHANNELS 6 Xposition Yposition Zposition Yrotation Xrotation Zrotation
									JOINT f_pinky.01.L
									{
										OFFSET 0.069986 -0.026156 0.003627
										CHANNELS 3 Xrotation Yrotation Zrotation
										JOINT f_pinky.02.L
										{
											OFFSET 0.018520 -0.012813 -0.016429
											CHANNELS 3 Xrotation Yrotation Zrotation
											JOINT f_pinky.03.L
											{
												OFFSET 0.013822 -0.009796 -0.014947
												CHANNELS 3 Xrotation Yrotation Zrotation
												End Site
												{
													OFFSET 0.007238 -0.006103 -0.011657
												}
											}
										}
									}
								}
							}
						}
					}
				}
				JOINT shoulder.R
				{
					OFFSET -0.016662 0.078957 0.057696
					CHANNELS 6 Xposition Yposition Zposition Yrotation Xrotation Zrotation
					JOINT upper_arm.R
					{
						OFFSET -0.176972 -0.020537 -0.095144
						CHANNELS 6 Xposition Yposition Zposition Xrotation Yrotation Zrotation
						JOINT forearm.R
						{
							OFFSET -0.247100 -0.135500 -0.061800
							CHANNELS 3 Xrotation Yrotation Zrotation
							JOINT hand.R
							{
								OFFSET -0.217000 -0.143000 0.039300
								CHANNELS 3 Xrotation Yrotation Zrotation
								JOINT palm.01.R
								{
									OFFSET -0.021773 -0.038278 0.012988
									CHANNELS 6 Xposition Yposition Zposition Yrotation Xrotation Zrotation
									JOINT f_index.01.R
									{
										OFFSET -0.053212 -0.044139 0.008249
										CHANNELS 3 Xrotation Yrotation Zrotation
										JOINT f_index.02.R
										{
											OFFSET -0.036049 -0.024835 -0.010634
											CHANNELS 3 Xrotation Yrotation Zrotation
											JOINT f_index.03.R
											{
												OFFSET -0.021371 -0.014881 -0.010866
												CHANNELS 3 Xrotation Yrotation Zrotation
												End Site
												{
													OFFSET -0.015584 -0.009883 -0.013422
												}
											}
										}
									}
									JOINT thumb.01.R
									{
										OFFSET 0.009113 -0.002381 -0.024211
										CHANNELS 6 Xposition Yposition Zposition Xrotation Yrotation Zrotation
										JOINT thumb.02.R
										{
											OFFSET -0.019694 -0.035097 -0.011088
											CHANNELS 3 Xrotation Yrotation Zrotation
											JOINT thumb.03.R
											{
												OFFSET -0.024867 -0.021762 -0.005168
												CHANNELS 3 Xrotation Yrotation Zrotation
												End Site
												{
													OFFSET -0.016120 -0.013036 -0.001565
												}
											}
										}
									}
								}
								JOINT palm.02.R
								{
									OFFSET -0.032828 -0.025095 0.012286
									CHANNELS 6 Xposition Yposition Zposition Yrotation Xrotation Zrotation
									JOINT f_middle.01.R
									{
										OFFSET -0.055721 -0.038472 0.008040
										CHANNELS 3 Xrotation Yrotation Zrotation
										JOINT f_middle.02.R
										{
											OFFSET -0.038101 -0.027593 -0.015557
											CHANNELS 3 Xrotation Yrotation Zrotation
											JOINT f_middle.03.R
											{
												OFFSET -0.021730 -0.016530 -0.017054
												CHANNELS 3 Xrotation Yrotation Zrotation
												End Site
												{
													OFFSET -0.014096 -0.010608 -0.014293
												}
											}
										}
									}
								}
								JOINT palm.03.R
								{
									OFFSET -0.039192 -0.011488 0.008390
									CHANNELS 6 Xposition Yposition Zposition Yrotation Xrotation Zrotation
									JOINT f_ring.01.R
									{
										OFFSET -0.061839 -0.031387 0.007876
										CHANNELS 3 Xrotation Yrotation Zrotation
										JOINT f_ring.02.R
										{
											OFFSET -0.033068 -0.023437 -0.019125
											CHANNELS 3 Xrotation Yrotation Zrotation
											JOINT f_ring.03.R
											{
												OFFSET -0.021371 -0.015393 -0.017822
												CHANNELS 3 Xrotation Yrotation Zrotation
												End Site
												{
													OFFSET -0.008654 -0.007321 -0.014684
												}
											}
										}
									}
								}
								JOINT palm.04.R
								{
									OFFSET -0.043421 0.002443 0.002845
									CHANNELS 6 Xposition Yposition Zposition Yrotation Xrotation Zrotation
									JOINT f_pinky.01.R
									{
										OFFSET -0.069983 -0.026169 0.003599
										CHANNELS 3 Xrotation Yrotation Zrotation
										JOINT f_pinky.02.R
										{
											OFFSET -0.018501 -0.012842 -0.016428
											CHANNELS 3 Xrotation Yrotation Zrotation
											JOINT f_pinky.03.R
											{
												OFFSET -0.013806 -0.009821 -0.014946
												CHANNELS 3 Xrotation Yrotation Zrotation
												End Site
												{
													OFFSET -0.007226 -0.006121 -0.011655
												}
											}
										}
									}
								}
							}
						}
					}
				}
			}
		}
	}
	JOINT pelvis.L
	{
		OFFSET 0.000000 0.000000 0.000000
		CHANNELS 6 Xposition Yposition Zposition Xrotation Yrotation Zrotation
		JOINT thigh.L
		{
			OFFSET 0.101675 0.001054 -0.000000
			CHANNELS 3 Xrotation Yrotation Zrotation
			JOINT shin.L
			{
				OFFSET 0.000000 -0.534800 0.041000
				CHANNELS 3 Xrotation Yrotation Zrotation
				JOINT foot.L
				{
					OFFSET 0.000000 -0.452000 -0.044800
					CHANNELS 3 Xrotation Yrotation Zrotation
					JOINT toe.L
					{
						OFFSET -0.000000 -0.068500 0.109600
						CHANNELS 3 Xrotation Yrotation Zrotation
						End Site
						{
							OFFSET -0.000000 0.000000 0.067200
						}
					}
				}
				JOINT heel.L
				{
					OFFSET 0.000000 -0.452000 -0.044800
					CHANNELS 3 Xrotation Yrotation Zrotation
					JOINT heel.02.L
					{
						OFFSET -0.038000 -0.085200 0.016200
						CHANNELS 6 Xposition Yposition Zposition Xrotation Yrotation Zrotation
						End Site
						{
							OFFSET 0.080000 -0.000000 0.000000
						}
					}
				}
			}
		}
	}
	JOINT pelvis.R
	{
		OFFSET 0.000000 0.000000 0.000000
		CHANNELS 6 Xposition Yposition Zposition Xrotation Yrotation Zrotation
		JOINT thigh.R
		{
			OFFSET -0.094325 0.001054 0.000000
			CHANNELS 3 Xrotation Yrotation Zrotation
			JOINT shin.R
			{
				OFFSET 0.000000 -0.534800 0.041000
				CHANNELS 3 Xrotation Yrotation Zrotation
				JOINT foot.R
				{
					OFFSET 0.000000 -0.452000 -0.044800
					CHANNELS 3 Xrotation Yrotation Zrotation
					JOINT toe.R
					{
						OFFSET -0.000000 -0.068500 0.109600
						CHANNELS 3 Xrotation Yrotation Zrotation
						End Site
						{
							OFFSET -0.000000 0.000000 0.067200
						}
					}
				}
				JOINT heel.R
				{
					OFFSET 0.000000 -0.452000 -0.044800
					CHANNELS 3 Xrotation Yrotation Zrotation
					JOINT heel.02.R
					{
						OFFSET 0.038000 -0.085200 0.016200
						CHANNELS 6 Xposition Yposition Zposition Xrotation Yrotation Zrotation
						End Site
						{
							OFFSET -0.080000 0.000000 -0.000000
						}
					}
				}
			}
		}
	}
}
MOTION
Frames: 4
Frame Time: 0.041667
-0.019632 0.205804 -0.022493 -9.600495 -6.218262 82.545691 -0.000000 0.000001 0.000000 -0.000001 0.000001 -0.000000 0.000001 0.000000 -0.000000 0.000000 0.000001 0.000000 0.000924 0.155147 0.009274 -0.964384 0.001587 -13.889751 0.019937 0.078966 0.057518 -1.714616 2.941276 45.303402 0.177025 -0.020465 -0.095062 -18.149833 -1.009386 -16.846648 -2.396553 -7.467400 16.140791 -0.000001 -0.000001 -0.000002 0.021770 -0.038291 0.012954 0.000001 0.000003 -0.000004 -0.000000 -0.000003 0.000003 -0.000000 0.000001 0.000005 0.000002 0.000000 -0.000001 -0.009090 -0.002348 -0.024223 -0.000001 -0.000001 -0.000001 0.000001 -0.000001 0.000005 0.000003 -0.000000 -0.000001 0.032823 -0.025104 0.012281 0.000000 0.000003 -0.000001 -0.000001 -0.000001 -0.000000 -0.000000 0.000000 0.000001 0.000001 0.000002 0.000004 0.039230 -0.011402 0.008390 0.000001 0.000000 0.000001 -0.000000 0.000002 -0.000000 -0.000002 0.000003 0.000001 0.000003 -0.000003 0.000001 0.043417 0.002450 0.002889 0.000002 0.000004 -0.000004 -0.000008 -0.000006 0.000003 -0.000001 -0.000001 -0.000000 0.000001 -0.000005 0.000004 -0.016662 0.078956 0.057696 -17.864172 3.320242 -30.774616 -0.176972 -0.020537 -0.095144 -14.578436 -0.825391 15.884016 -0.002034 18.564359 -34.801921 0.000003 -0.000003 0.000003 -0.021773 -0.038278 0.012988 -0.000000 -0.000000 -0.000003 0.000001 -0.000000 0.000000 -0.000000 -0.000002 0.000003 0.000001 0.000000 0.000001 0.009114 -0.002381 -0.024211 0.000002 -0.000001 -0.000001 0.000001 -0.000001 0.000002 -0.000001 -0.000002 -0.000004 -0.032828 -0.025095 0.012286 0.000001 -0.000000 -0.000003 0.000001 0.000000 -0.000001 -0.000001 0.000004 0.000000 -0.000003 0.000003 -0.000004 -0.039192 -0.011488 0.008390 -0.000001 0.000001 0.000001 0.000002 0.000005 -0.000005 0.000005 -0.000000 -0.000000 0.000001 0.000001 -0.000001 -0.043421 0.002442 0.002845 -0.000002 0.000003 0.000004 -0.000002 0.000003 -0.000001 0.000001 -0.000004 -0.000000 0.000004 0.000003 -0.000004 -0.000000 0.000000 -0.000000 -2.398095 0.226316 -3.347083 -12.101417 0.300276 5.018808 43.807495 -1.375922 14.026312 0.000000 -0.000000 -0.000000 -0.000005 -0.000000 -0.000000 0.000003 -0.000001 -0.000001 -0.038000 -0.085200 0.016200 -0.000001 -0.000000 0.000000 -0.000000 0.000000 0.000000 -2.338174 0.223436 -2.113137 -50.197345 0.455291 2.270288 30.308196 -0.202945 2.048613 -0.000003 0.000001 -0.000000 -0.000002 0.000001 0.000001 0.000002 -0.000000 -0.000001 0.038000 -0.085200 0.016200 -0.000005 -0.000000 0.000001 
-0.019469 0.206100 -0.021034 -10.990906 -5.778754 82.418014 -0.000001 -0.000001 0.000000 -0.000001 0.000000 -0.000001 -0.000000 -0.000000 0.000001 -0.000000 -0.000001 0.000001 0.000924 0.155148 0.009274 -0.130009 -0.000645 -13.711918 0.019937 0.078966 0.057518 -5.324788 3.173869 47.271063 0.177024 -0.020465 -0.095062 -16.163139 1.630924 -18.185095 -3.304749 -9.531415 15.510958 -0.000001 0.000003 0.000001 0.021770 -0.038291 0.012954 0.000001 0.000002 -0.000004 0.000001 -0.000001 0.000003 0.000001 -0.000003 0.000005 -0.000003 0.000001 0.000002 -0.009090 -0.002348 -0.024223 0.000000 -0.000003 0.000001 -0.000000 0.000000 0.000001 0.000000 0.000000 -0.000001 0.032823 -0.025104 0.012281 -0.000001 0.000002 0.000004 -0.000003 0.000002 -0.000002 -0.000003 -0.000001 -0.000000 -0.000006 -0.000003 0.000008 0.039230 -0.011402 0.008390 -0.000001 -0.000000 0.000004 0.000001 -0.000001 0.000001 0.000002 0.000004 -0.000002 -0.000001 -0.000003 0.000005 0.043417 0.002450 0.002889 0.000000 0.000002 -0.000005 0.000001 -0.000005 0.000001 -0.000000 0.000001 -0.000003 0.000002 0.000003 -0.000002 -0.016662 0.078956 0.057696 -21.193496 4.019527 -29.629166 -0.176972 -0.020537 -0.095144 -14.708309 -0.632025 16.083091 -1.313216 21.502481 -32.312115 -0.000003 0.000002 -0.000000 -0.021773 -0.038278 0.012988 -0.000001 -0.000000 -0.000005 -0.000000 0.000002 0.000002 0.000003 -0.000000 -0.000006 0.000003 -0.000001 0.000008 0.009113 -0.002381 -0.024212 0.000003 -0.000002 0.000002 0.000001 -0.000002 0.000000 0.000002 0.000001 -0.000006 -0.032828 -0.025095 0.012286 0.000001 0.000002 -0.000003 -0.000001 0.000003 0.000001 0.000001 0.000003 -0.000005 0.000002 0.000003 -0.000002 -0.039192 -0.011488 0.008390 -0.000001 0.000004 -0.000002 0.000001 0.000000 -0.000002 0.000001 -0.000003 0.000003 -0.000006 -0.000002 -0.000003 -0.043421 0.002443 0.002845 -0.000001 0.000002 -0.000005 -0.000003 0.000000 0.000001 -0.000002 -0.000006 -0.000001 0.000000 -0.000002 0.000001 -0.000000 0.000000 0.000000 -2.387320 0.307481 -4.212342 -5.717099 0.450845 6.579928 38.867362 -1.435163 14.643589 -0.000002 0.000001 0.000000 0.000001 0.000000 -0.000001 0.000000 -0.000000 0.000001 -0.038000 -0.085200 0.016200 -0.000000 0.000000 -0.000000 -0.000000 0.000000 0.000000 -2.324567 0.303510 -2.978491 -47.805799 0.334085 0.836544 25.408261 -0.218365 2.204199 -0.000002 0.000002 0.000000 0.000000 0.000001 0.000001 0.000002 0.000000 0.000001 0.038000 -0.085200 0.016200 0.000002 0.000000 -0.000000 
-0.019094 0.205663 -0.020232 -12.141641 -5.625101 83.085440 -0.000001 -0.000001 0.000000 -0.000001 -0.000000 0.000000 -0.000000 -0.000001 0.000000 -0.000000 -0.000001 -0.000000 0.000924 0.155148 0.009274 -0.641759 0.000080 -14.287048 0.019937 0.078966 0.057518 -5.642450 3.293746 47.863818 0.177025 -0.020465 -0.095062 -17.133722 1.381757 -19.308146 -2.534533 -7.194685 14.625100 -0.000002 0.000002 -0.000001 0.021770 -0.038291 0.012954 0.000001 -0.000001 0.000005 -0.000002 -0.000002 0.000001 0.000000 -0.000000 0.000008 -0.000000 0.000000 0.000003 -0.009090 -0.002348 -0.024223 -0.000002 -0.000003 0.000004 0.000001 0.000001 -0.000002 0.000001 0.000003 -0.000002 0.032823 -0.025104 0.012281 0.000000 0.000001 0.000005 -0.000003 -0.000001 -0.000000 -0.000000 0.000000 0.000001 -0.000004 -0.000001 0.000001 0.039230 -0.011402 0.008390 0.000001 0.000001 0.000004 0.000002 0.000000 -0.000000 -0.000002 0.000003 0.000003 0.000003 0.000001 -0.000001 0.043417 0.002450 0.002889 0.000000 0.000001 -0.000003 0.000000 -0.000003 -0.000002 0.000001 0.000001 0.000003 0.000000 0.000002 0.000002 -0.016662 0.078956 0.057696 -21.497044 4.103935 -29.544157 -0.176972 -0.020537 -0.095144 -15.085472 -1.312005 18.111761 -1.666597 15.858246 -29.062059 -0.000001 0.000001 0.000000 -0.021773 -0.038278 0.012988 0.000000 -0.000003 -0.000003 -0.000003 0.000001 0.000001 -0.000000 0.000001 -0.000004 -0.000004 0.000002 0.000003 0.009114 -0.002381 -0.024211 0.000002 -0.000003 0.000002 0.000004 -0.000001 0.000000 0.000002 0.000001 -0.000004 -0.032828 -0.025095 0.012286 0.000003 -0.000000 -0.000001 -0.000001 0.000006 -0.000006 0.000005 0.000000 -0.000000 -0.000003 -0.000001 -0.000004 -0.039192 -0.011488 0.008390 0.000000 -0.000003 0.000001 0.000000 0.000003 -0.000003 -0.000001 -0.000003 -0.000000 -0.000004 0.000001 -0.000006 -0.043421 0.002443 0.002845 0.000001 -0.000002 0.000002 -0.000002 0.000007 -0.000003 -0.000004 -0.000004 -0.000002 0.000001 0.000000 0.000004 -0.000000 0.000000 -0.000000 -2.384015 0.348941 -4.653458 -1.104571 0.520553 7.199269 37.054278 -1.437054 14.663281 -0.000002 0.000001 0.000001 -0.000002 -0.000001 0.000000 -0.000002 -0.000001 -0.000001 -0.038000 -0.085200 0.016200 0.000003 0.000000 0.000000 -0.000000 0.000000 0.000000 -2.319765 0.344384 -3.419658 -48.171193 0.285547 0.205976 24.668391 -0.175508 1.771545 0.000000 -0.000001 -0.000001 -0.000002 0.000000 0.000000 0.000005 -0.000001 -0.000001 0.038000 -0.085200 0.016200 -0.000000 0.000000 -0.000000 
-0.013291 0.206529 -0.004185 -14.274198 14.430260 92.440224 0.000001 -0.000001 0.000000 -0.000001 0.000000 0.000000 -0.000001 0.000001 -0.000000 0.000000 0.000001 -0.000000 0.000924 0.155148 0.009274 -10.131082 0.030496 -14.723940 0.019937 0.078966 0.057518 -7.659127 3.019518 44.271708 0.177024 -0.020465 -0.095062 -18.162837 0.956789 -19.059013 0.802986 1.356459 13.510359 -0.000001 0.000001 0.000003 0.021770 -0.038291 0.012954 0.000001 -0.000000 0.000001 -0.000001 -0.000002 0.000001 0.000001 -0.000000 0.000009 -0.000003 -0.000000 -0.000004 -0.009090 -0.002348 -0.024223 -0.000000 -0.000003 0.000001 0.000000 -0.000000 -0.000002 -0.000000 -0.000001 0.000001 0.032823 -0.025104 0.012281 -0.000001 0.000001 0.000002 0.000002 0.000000 -0.000007 -0.000004 -0.000003 0.000001 -0.000000 0.000000 -0.000001 0.039230 -0.011402 0.008390 -0.000000 -0.000001 0.000009 -0.000002 -0.000001 0.000001 0.000003 0.000004 0.000001 0.000001 -0.000004 0.000002 0.043418 0.002450 0.002889 -0.000001 0.000001 -0.000000 -0.000002 -0.000004 -0.000002 0.000001 0.000004 -0.000002 -0.000002 -0.000006 0.000000 -0.016662 0.078957 0.057696 -18.735161 4.684194 -33.506688 -0.176972 -0.020537 -0.095144 -12.423386 1.484921 8.708904 0.919434 -2.871694 -30.781941 -0.000000 0.000002 0.000005 -0.021773 -0.038278 0.012988 -0.000001 -0.000003 -0.000002 -0.000002 0.000003 -0.000006 0.000001 0.000001 0.000001 0.000001 0.000003 0.000002 0.009114 -0.002381 -0.024211 -0.000001 -0.000001 -0.000001 -0.000000 -0.000003 0.000002 0.000001 0.000001 -0.000003 -0.032828 -0.025095 0.012286 0.000001 -0.000000 -0.000003 0.000002 0.000002 0.000004 -0.000000 -0.000001 -0.000001 -0.000001 0.000003 -0.000002 -0.039192 -0.011488 0.008390 -0.000001 0.000002 -0.000000 0.000001 0.000004 -0.000005 0.000003 -0.000000 -0.000000 -0.000003 0.000002 -0.000004 -0.043420 0.002443 0.002845 -0.000002 0.000000 -0.000001 -0.000005 0.000004 -0.000002 -0.000002 -0.000004 0.000005 -0.000001 0.000003 -0.000001 -0.000000 0.000000 0.000000 -2.270099 -0.217780 1.406666 30.171903 0.330540 2.770422 30.728550 -1.368049 13.944361 -0.000002 -0.000001 -0.000000 -0.000006 0.000001 0.000000 0.000000 -0.000000 0.000000 -0.038000 -0.085200 0.016200 0.000000 0.000001 -0.000000 -0.000000 0.000000 0.000000 -2.229350 -0.216352 2.641013 -20.752741 0.182431 0.476473 34.220884 -0.262540 2.650505 0.000003 -0.000002 -0.000000 0.000003 0.000001 0.000001 0.000005 -0.000001 -0.000000 0.038000 -0.085200 0.016200 -0.000003 0.000000 -0.000001 
